HIERARCHY
ROOT Hips
{
	OFFSET 0.00000 0.00000 0.00000
	CHANNELS 6 Xposition Yposition Zposition Zrotation Yrotation Xrotation 
	JOINT LHipJoint
	{
		OFFSET 0 0 0
		CHANNELS 3 Zrotation Yrotation Xrotation
		JOINT LeftUpLeg
		{
			OFFSET 1.38615 -1.80049 0.80104
			CHANNELS 3 Zrotation Yrotation Xrotation
			JOINT LeftLeg
			{
				OFFSET 2.50172 -6.87341 0.00000
				CHANNELS 3 Zrotation Yrotation Xrotation
				JOINT LeftFoot
				{
					OFFSET 2.67523 -7.35014 0.00000
					CHANNELS 3 Zrotation Yrotation Xrotation
					JOINT LeftToeBase
					{
						OFFSET 0.17446 -0.47932 2.13155
						CHANNELS 3 Zrotation Yrotation Xrotation
						End Site
						{
							OFFSET 0.00000 -0.00000 1.10023
						}
					}
				}
			}
		}
	}
	JOINT RHipJoint
	{
		OFFSET 0 0 0
		CHANNELS 3 Zrotation Yrotation Xrotation
		JOINT RightUpLeg
		{
			OFFSET -1.18047 -1.80049 0.80104
			CHANNELS 3 Zrotation Yrotation Xrotation
			JOINT RightLeg
			{
				OFFSET -2.59789 -7.13765 0.00000
				CHANNELS 3 Zrotation Yrotation Xrotation
				JOINT RightFoot
				{
					OFFSET -2.62125 -7.20183 0.00000
					CHANNELS 3 Zrotation Yrotation Xrotation
					JOINT RightToeBase
					{
						OFFSET -0.31287 -0.85960 2.07814
						CHANNELS 3 Zrotation Yrotation Xrotation
						End Site
						{
							OFFSET -0.00000 -0.00000 1.11766
						}
					}
				}
			}
		}
	}
	JOINT LowerBack
	{
		OFFSET 0 0 0
		CHANNELS 3 Zrotation Yrotation Xrotation
		JOINT Spine
		{
			OFFSET -0.01587 2.16157 -0.12309
			CHANNELS 3 Zrotation Yrotation Xrotation
			JOINT Spine1
			{
				OFFSET 0.04727 2.16674 -0.03569
				CHANNELS 3 Zrotation Yrotation Xrotation
				JOINT Neck
				{
					OFFSET 0 0 0
					CHANNELS 3 Zrotation Yrotation Xrotation
					JOINT Neck1
					{
						OFFSET -0.08586 1.60335 0.32783
						CHANNELS 3 Zrotation Yrotation Xrotation
						JOINT Head
						{
							OFFSET 0.07583 1.65857 -0.31618
							CHANNELS 3 Zrotation Yrotation Xrotation
							End Site
							{
								OFFSET 0.03386 1.69434 -0.14584
							}
						}
					}
				}
				JOINT LeftShoulder
				{
					OFFSET 0 0 0
					CHANNELS 3 Zrotation Yrotation Xrotation
					JOINT LeftArm
					{
						OFFSET 3.17393 1.01901 -0.52897
						CHANNELS 3 Zrotation Yrotation Xrotation
						JOINT LeftForeArm
						{
							OFFSET 5.25287 -0.00000 -0.00000
							CHANNELS 3 Zrotation Yrotation Xrotation
							JOINT LeftHand
							{
								OFFSET 3.51014 -0.00000 0.00000
								CHANNELS 3 Zrotation Yrotation Xrotation
								JOINT LeftFingerBase
								{
									OFFSET 0 0 0
									CHANNELS 3 Zrotation Yrotation Xrotation
									JOINT LeftHandIndex1
									{
										OFFSET 0.70618 -0.00000 -0.00000
										CHANNELS 3 Zrotation Yrotation Xrotation
										End Site
										{
											OFFSET 0.56934 -0.00000 -0.00000
										}
									}
								}
								JOINT LThumb
								{
									OFFSET 0 0 0
									CHANNELS 3 Zrotation Yrotation Xrotation
									End Site
									{
										OFFSET 0.57803 -0.00000 0.57803
									}
								}
							}
						}
					}
				}
				JOINT RightShoulder
				{
					OFFSET 0 0 0
					CHANNELS 3 Zrotation Yrotation Xrotation
					JOINT RightArm
					{
						OFFSET -2.99471 1.26495 -0.61125
						CHANNELS 3 Zrotation Yrotation Xrotation
						JOINT RightForeArm
						{
							OFFSET -5.28721 -0.00000 -0.00000
							CHANNELS 3 Zrotation Yrotation Xrotation
							JOINT RightHand
							{
								OFFSET -3.50544 -0.00000 0.00000
								CHANNELS 3 Zrotation Yrotation Xrotation
								JOINT RightFingerBase
								{
									OFFSET 0 0 0
									CHANNELS 3 Zrotation Yrotation Xrotation
									JOINT RightHandIndex1
									{
										OFFSET -0.88500 -0.00000 -0.00000
										CHANNELS 3 Zrotation Yrotation Xrotation
										End Site
										{
											OFFSET -0.71351 -0.00000 -0.00000
										}
									}
								}
								JOINT RThumb
								{
									OFFSET 0 0 0
									CHANNELS 3 Zrotation Yrotation Xrotation
									End Site
									{
										OFFSET -0.72440 -0.00000 0.72440
									}
								}
							}
						}
					}
				}
			}
		}
	}
}
MOTION
Frames: 10
Frame Time: .0083333
10.562 17.8003 -12.0966 0 0 0 0 0 0 -21 0 0 0 0 0 0 0 0 0 0 0 0 0 0 21 0 0 0 0 0 0 0 0 0 0 0 0 0 0 0 0 0 0 0 0 0 0 -16 0 0 21 0 0 11 0 0 0 -8 0 0 0 0 0 0 0 0 0 0 0 0 0 0 0 0 0 0 0 0 8 0 0 0 0 0 0 0 0 0 0 0 0 0 0 0 0 0
10.5620 17.8003 -12.0966 7.2371 -54.7391 -2.2244 0.0000 0.0000 0.0000 -27.1070 6.9665 -5.9379 0.5487 4.7454 13.1839 0.4037 1.7418 -12.7634 0.2714 -3.3512 -9.2581 0.0000 0.0000 0.0000 5.2988 0.1883 -6.4872 -1.3938 -7.4691 21.1128 -0.5545 -7.3859 -18.6621 -1.1322 6.7581 -19.0005 -5.6015 0.1896 -2.6621 0.1604 0.4184 -0.0750 3.3234 0.1710 1.3756 -9.2590 -2.9192 -20.8395 5.9201 -2.8057 24.6551 3.3054 -1.4217 11.7517 0.0000 0.0000 0.0000 -81.3735 2.1725 65.0427 84.0314 -59.8650 -54.8334 -0.0000 -0.0000 14.6137 18.0854 33.5588 10.2331 -7.1250 0.0000 -0.0000 -18.2107 63.9979 -8.5222 0.0000 0.0000 0.0000 80.2860 1.0270 64.6885 -108.6137 58.6495 -76.0468 0.0000 0.0000 8.6874 -25.8579 26.5058 -12.2051 7.1250 -0.0000 -0.0000 2.4527 -1.0082 2.4114
10.5604 17.8014 -12.1026 7.2324 -54.7270 -2.2229 0.0000 0.0000 0.0000 -27.0610 7.1576 -6.1632 0.5638 4.8094 13.3658 0.4157 1.5052 -12.8190 0.2681 -3.3307 -9.2008 0.0000 0.0000 0.0000 5.3450 0.2242 -6.4194 -1.3852 -7.4470 21.0466 -0.5497 -7.4694 -18.6812 -1.1538 6.8199 -19.1828 -5.5380 0.1867 -2.6095 0.0517 0.4097 -0.0931 3.1747 0.1688 1.3294 -9.1536 -2.8395 -21.1498 6.1536 -2.7838 25.0330 3.3898 -1.3745 11.9573 -0.0000 0.0000 0.0000 -81.2463 2.5489 64.8172 84.9278 -59.9026 -55.6087 -0.0000 -0.0000 14.8196 17.9832 33.4701 10.1493 -7.1250 0.0000 -0.0000 -18.2454 63.8870 -8.4918 -0.0000 0.0000 0.0000 80.4863 0.9717 64.6438 -108.7027 58.6362 -76.1228 0.0000 0.0000 8.5961 -26.0800 26.1321 -12.1656 7.1250 -0.0000 -0.0000 2.2663 -1.3559 2.2138
10.5579 17.8060 -12.1040 6.9618 -54.7384 -1.9405 0.0000 0.0000 0.0000 -26.8698 7.2941 -6.4148 0.5766 4.8627 13.5173 0.4329 1.1639 -12.9057 0.2830 -3.4214 -9.4543 0.0000 0.0000 0.0000 5.5260 0.3310 -6.3908 -1.3829 -7.4410 21.0286 -0.5666 -7.3788 -18.7876 -1.0746 6.5895 -18.5047 -5.3524 0.1739 -2.6785 0.0651 0.3914 -0.0966 3.0840 0.1600 1.3674 -9.0570 -2.8002 -21.2824 6.0760 -2.7298 25.1364 3.3555 -1.3509 12.0159 -0.0000 0.0000 0.0000 -81.2261 2.6791 64.6884 85.6612 -59.9287 -56.2434 -0.0000 -0.0000 14.8563 17.9469 33.6539 10.1759 -7.1250 0.0000 -0.0000 -18.4559 64.0501 -8.6633 -0.0000 0.0000 0.0000 80.4992 0.9157 64.5701 -108.8729 58.6104 -76.2682 0.0000 0.0000 8.5468 -26.2534 25.9690 -12.1872 7.1250 -0.0000 -0.0000 2.1390 -1.4915 2.0841
10.5542 17.8083 -12.1043 6.5460 -54.6883 -1.4800 0.0000 0.0000 0.0000 -26.5972 7.4147 -6.6651 0.5931 4.9306 13.7108 0.4378 1.0158 -12.9075 0.2796 -3.4011 -9.3975 0.0000 0.0000 0.0000 5.8009 0.3474 -6.4727 -1.3845 -7.4452 21.0412 -0.5735 -7.3532 -18.8396 -1.0440 6.4980 -18.2365 -5.1846 0.1485 -2.8448 0.1096 0.3622 -0.0848 3.0358 0.1434 1.4762 -8.8951 -2.7351 -21.4858 6.0834 -2.6804 25.2479 3.3424 -1.3108 12.0920 0.0000 -0.0000 0.0000 -81.2061 2.2112 64.9117 85.0512 -59.9073 -55.7156 -0.0000 -0.0000 14.5898 18.4181 33.7563 10.4834 -7.1250 0.0000 -0.0000 -18.0144 64.2738 -8.5431 0.0000 -0.0000 0.0000 80.5817 0.8961 64.4048 -108.9418 58.5999 -76.3270 0.0000 0.0000 8.4109 -26.2945 25.9819 -12.2140 7.1250 -0.0000 -0.0000 2.1162 -1.4690 2.0627
10.5530 17.8116 -12.1115 6.2873 -54.6958 -1.1849 0.0000 0.0000 0.0000 -26.4115 7.2937 -6.8283 0.6131 5.0115 13.9414 0.4286 1.2517 -12.8844 0.2802 -3.4044 -9.4066 0.0000 0.0000 0.0000 6.0066 0.4987 -6.5522 -1.3912 -7.4624 21.0926 -0.5776 -7.4268 -18.9469 -1.0000 6.3638 -17.8438 -5.0671 0.2671 -2.9240 0.0010 0.5231 -0.0658 2.8648 0.2231 1.5277 -8.5943 -2.7805 -21.5687 6.2165 -2.8837 25.2310 3.3085 -1.3525 12.1164 0.0000 0.0000 0.0000 -80.8651 1.2951 65.7304 83.7491 -59.8518 -54.5892 -0.0000 -0.0000 14.2191 18.9557 33.6671 10.7803 -7.1250 0.0000 -0.0000 -17.3158 64.3357 -8.2269 0.0000 0.0000 0.0000 80.9804 0.8803 63.8821 -108.9383 58.6005 -76.3240 0.0000 0.0000 8.3229 -26.2551 25.9840 -12.1944 7.1250 -0.0000 -0.0000 2.1402 -1.4752 2.0859
10.5579 17.8303 -12.1534 5.7251 -54.7072 -0.2397 0.0000 0.0000 0.0000 -25.9118 7.9014 -7.8609 0.6208 5.0424 14.0294 0.4410 0.2132 -12.6246 0.2790 -3.3976 -9.3877 0.0000 0.0000 0.0000 6.5882 1.0434 -7.0468 -1.4047 -7.4969 21.1960 -0.5626 -7.8267 -19.1305 -0.9254 6.1285 -17.1577 -5.1482 0.2640 -3.0478 0.1983 0.5197 -0.2826 3.1138 0.2284 1.3713 -8.7881 -2.8152 -21.2575 6.3239 -2.9124 24.9551 3.3703 -1.3705 11.9551 -0.0000 -0.0000 0.0000 -80.9134 0.8589 66.0860 83.0196 -59.8151 -53.9585 -0.0000 -0.0000 14.2705 19.0218 33.7170 10.8336 -7.1250 0.0000 -0.0000 -17.2857 64.4009 -8.2384 -0.0000 -0.0000 0.0000 80.9267 0.8674 63.6750 -108.9685 58.5958 -76.3498 0.0000 0.0000 8.2736 -26.2621 25.9633 -12.1893 7.1250 -0.0000 -0.0000 2.1331 -1.4957 2.0781
10.5678 17.8401 -12.1874 5.6088 -54.4834 0.2328 0.0000 0.0000 0.0000 -25.7689 8.1254 -8.5477 0.6183 5.0322 14.0003 0.4416 -0.5514 -12.3737 0.2381 -3.1402 -8.6693 0.0000 0.0000 0.0000 6.7916 1.3213 -7.4681 -1.4251 -7.5488 21.3519 -0.5480 -8.1901 -19.2972 -0.9027 6.0550 -16.9441 -5.4045 0.1152 -3.0411 0.3719 0.3217 -0.4619 3.4288 0.1361 1.1985 -8.9221 -2.7810 -20.9763 6.1431 -2.7724 24.6065 3.3380 -1.3422 11.7525 -0.0000 0.0000 0.0000 -81.1510 0.7927 65.9637 82.7642 -59.8012 -53.7378 -0.0000 -0.0000 14.6147 19.1643 33.6062 10.8882 -7.1250 0.0000 -0.0000 -17.0201 64.3348 -8.0820 -0.0000 0.0000 0.0000 80.7241 0.8812 63.6599 -108.9385 58.6004 -76.3241 0.0000 0.0000 8.1929 -26.3994 26.0164 -12.2834 7.1250 -0.0000 -0.0000 2.0583 -1.4094 2.0083
10.5570 17.8266 -12.1767 6.2359 -54.9260 -0.7176 0.0000 0.0000 0.0000 -26.1328 8.4868 -8.0073 0.6117 5.0060 13.9257 0.4479 -0.1951 -12.5774 0.2308 -3.0921 -8.5353 0.0000 0.0000 0.0000 6.3671 1.4937 -7.0829 -1.4453 -7.5999 21.5052 -0.5634 -8.0033 -19.2939 -0.9496 6.2058 -17.3828 -5.6374 0.3210 -2.8456 0.1183 0.5999 -0.2750 3.3073 0.2688 1.2543 -8.4235 -2.7738 -20.9381 5.9202 -2.8640 24.4218 3.1501 -1.3616 11.6699 0.0000 0.0000 0.0000 -80.9184 0.7239 65.9967 82.8786 -59.8075 -53.8367 -0.0000 -0.0000 14.9513 19.3884 33.3020 10.9363 -7.1250 0.0000 -0.0000 -16.4887 64.1061 -7.7351 0.0000 0.0000 0.0000 81.0936 0.8394 63.3378 -108.9341 58.6011 -76.3204 0.0000 0.0000 8.2093 -26.6169 25.9676 -12.3761 7.1250 -0.0000 -0.0000 1.9208 -1.4139 1.8739
10.5510 17.8181 -12.1713 6.7950 -55.1718 -1.3778 0.0000 0.0000 0.0000 -26.4623 8.4855 -7.6055 0.6013 4.9639 13.8057 0.4455 0.1614 -12.6690 0.2251 -3.0543 -8.4299 0.0000 0.0000 0.0000 5.9994 1.5464 -6.9887 -1.4658 -7.6514 21.6600 -0.5688 -7.8832 -19.2459 -0.9983 6.3584 -17.8278 -5.9073 0.4074 -2.7250 -0.0552 0.7178 -0.2392 3.2827 0.3267 1.2109 -8.3523 -2.6904 -20.8263 6.2333 -2.8702 24.3808 3.2544 -1.3191 11.6353 0.0000 -0.0000 0.0000 -80.7454 0.8050 66.0144 83.2808 -59.8287 -54.1843 -0.0000 -0.0000 14.9852 19.7593 33.5551 11.2303 -7.1250 0.0000 -0.0000 -16.2860 64.4486 -7.7673 0.0000 -0.0000 0.0000 81.3375 0.7941 63.1902 -108.9553 58.5979 -76.3385 0.0000 0.0000 8.1278 -26.9707 25.8815 -12.5239 7.1250 -0.0000 -0.0000 1.6959 -1.4277 1.6539
